<svg width="548" height="101" viewBox="0 0 548 101" fill="none" xmlns="http://www.w3.org/2000/svg">
<path d="M62.464 82.64V86.352H51.328V98H47.104V86.352H0L51.328 0.719994V82.64H62.464ZM47.104 82.64V15.44L6.4 82.64H47.104ZM131.412 100.56C125.865 100.56 120.916 99.408 116.564 97.104C112.212 94.7147 108.799 91.344 106.324 86.992C103.849 82.64 102.612 77.5627 102.612 71.76V1.99999H106.836V71.632C106.836 76.752 107.903 81.232 110.036 85.072C112.169 88.8267 115.071 91.728 118.74 93.776C122.495 95.824 126.676 96.848 131.284 96.848C135.892 96.848 140.031 95.8667 143.7 93.904C147.455 91.856 150.356 88.9547 152.404 85.2C154.537 81.36 155.604 76.8373 155.604 71.632V1.99999H159.828V71.504C159.828 77.392 158.633 82.5547 156.244 86.992C153.855 91.344 150.484 94.7147 146.132 97.104C141.865 99.408 136.959 100.56 131.412 100.56ZM178.064 40.4H182.16V53.712C183.867 49.5307 186.341 46.2453 189.584 43.856C192.912 41.4667 196.667 40.272 200.848 40.272C203.493 40.272 206.181 40.8267 208.912 41.936V46.672C206.437 44.7947 203.664 43.856 200.592 43.856C197.52 43.856 194.533 44.7947 191.632 46.672C188.816 48.5493 186.512 51.0667 184.72 54.224C183.013 57.3813 182.16 60.752 182.16 64.336V98H178.064V40.4ZM263.957 5.712H241.813V1.99999H290.069V5.712H268.181V98H263.957V5.712ZM292.939 40.4H297.035V53.712C298.742 49.5307 301.216 46.2453 304.459 43.856C307.787 41.4667 311.542 40.272 315.723 40.272C318.368 40.272 321.056 40.8267 323.787 41.936V46.672C321.312 44.7947 318.539 43.856 315.467 43.856C312.395 43.856 309.408 44.7947 306.507 46.672C303.691 48.5493 301.387 51.0667 299.595 54.224C297.888 57.3813 297.035 60.752 297.035 64.336V98H292.939V40.4ZM361.075 99.408C355.614 99.408 350.536 98.0427 345.843 95.312C341.15 92.5813 337.438 88.912 334.707 84.304C331.976 79.6107 330.611 74.576 330.611 69.2C330.611 63.824 331.976 58.832 334.707 54.224C337.438 49.5307 341.15 45.8187 345.843 43.088C350.536 40.3573 355.614 38.992 361.075 38.992C366.622 38.992 371.87 40.4853 376.819 43.472C381.768 46.3733 385.224 50.1707 387.187 54.864V40.4H391.283V98H387.187V83.664C384.883 88.4427 381.299 92.2827 376.435 95.184C371.656 98 366.536 99.408 361.075 99.408ZM361.331 95.824C366.024 95.824 370.376 94.6293 374.387 92.24C378.398 89.7653 381.555 86.5227 383.859 82.512C386.248 78.416 387.443 73.9787 387.443 69.2C387.443 64.5067 386.248 60.112 383.859 56.016C381.47 51.92 378.27 48.6773 374.259 46.288C370.248 43.8133 365.896 42.576 361.203 42.576C356.51 42.576 352.115 43.8133 348.019 46.288C344.008 48.7627 340.766 52.048 338.291 56.144C335.902 60.24 334.707 64.6347 334.707 69.328C334.707 74.0213 335.902 78.416 338.291 82.512C340.766 86.5227 344.051 89.7653 348.147 92.24C352.243 94.6293 356.638 95.824 361.331 95.824ZM455.469 40.4L427.181 99.664L398.765 40.4H403.245L427.181 90.32L450.989 40.4H455.469ZM489.721 95.952C494.158 95.952 498.382 94.8 502.393 92.496C506.404 90.192 509.732 87.0347 512.377 83.024V89.552C509.22 93.0507 505.764 95.6107 502.009 97.232C498.254 98.768 493.988 99.536 489.209 99.536C483.918 99.536 478.926 98.128 474.233 95.312C469.625 92.496 465.913 88.7413 463.097 84.048C460.366 79.3547 459.001 74.3627 459.001 69.072C459.001 63.3547 460.366 58.2347 463.097 53.712C465.828 49.104 469.54 45.52 474.233 42.96C479.012 40.4 484.302 39.12 490.105 39.12C498.98 39.12 506.532 42.6187 512.761 49.616L472.569 89.296C475.385 91.6 478.116 93.3067 480.761 94.416C483.406 95.44 486.393 95.952 489.721 95.952ZM463.097 68.688C463.097 75.7707 465.444 81.8293 470.137 86.864L507.641 49.616C504.825 47.1413 502.094 45.392 499.449 44.368C496.804 43.2587 493.646 42.704 489.977 42.704C484.772 42.704 480.121 43.856 476.025 46.16C472.014 48.3787 468.857 51.4507 466.553 55.376C464.249 59.3013 463.097 63.7387 463.097 68.688ZM547.452 99.152C543.441 99.152 539.772 98.256 536.444 96.464C533.116 94.5867 530.471 91.984 528.508 88.656C526.545 85.328 525.564 81.616 525.564 77.52V1.99999H529.66V77.52C529.66 80.9333 530.428 84.0053 531.964 86.736C533.585 89.4667 535.761 91.6427 538.492 93.264C541.223 94.8 544.209 95.568 547.452 95.568V99.152Z" fill="black"/>
<path d="M62.464 82.64H63.464V81.64H62.464V82.64ZM62.464 86.352V87.352H63.464V86.352H62.464ZM51.328 86.352V85.352H50.328V86.352H51.328ZM51.328 98V99H52.328V98H51.328ZM47.104 98H46.104V99H47.104V98ZM47.104 86.352H48.104V85.352H47.104V86.352ZM0 86.352L-0.857719 85.8379L-1.76528 87.352H0V86.352ZM51.328 0.719994H52.328V-2.89341L50.4703 0.205875L51.328 0.719994ZM51.328 82.64H50.328V83.64H51.328V82.64ZM47.104 82.64V83.64H48.104V82.64H47.104ZM47.104 15.44H48.104V11.8589L46.2487 14.9219L47.104 15.44ZM6.4 82.64L5.54467 82.1219L4.62515 83.64H6.4V82.64ZM61.464 82.64V86.352H63.464V82.64H61.464ZM62.464 85.352H51.328V87.352H62.464V85.352ZM50.328 86.352V98H52.328V86.352H50.328ZM51.328 97H47.104V99H51.328V97ZM48.104 98V86.352H46.104V98H48.104ZM47.104 85.352H0V87.352H47.104V85.352ZM0.857719 86.8661L52.1857 1.23411L50.4703 0.205875L-0.857719 85.8379L0.857719 86.8661ZM50.328 0.719994V82.64H52.328V0.719994H50.328ZM51.328 83.64H62.464V81.64H51.328V83.64ZM48.104 82.64V15.44H46.104V82.64H48.104ZM46.2487 14.9219L5.54467 82.1219L7.25533 83.1581L47.9593 15.9581L46.2487 14.9219ZM6.4 83.64H47.104V81.64H6.4V83.64ZM116.564 97.104L116.083 97.9806L116.089 97.9842L116.096 97.9878L116.564 97.104ZM106.324 86.992L105.455 87.4863L105.455 87.4863L106.324 86.992ZM102.612 1.99999V0.999992H101.612V1.99999H102.612ZM106.836 1.99999H107.836V0.999992H106.836V1.99999ZM110.036 85.072L109.162 85.5577L109.167 85.566L110.036 85.072ZM118.74 93.776L118.253 94.6492L118.261 94.6539L118.74 93.776ZM143.7 93.904L144.172 94.7858L144.179 94.7819L143.7 93.904ZM152.404 85.2L151.53 84.7143L151.526 84.7211L152.404 85.2ZM155.604 1.99999V0.999992H154.604V1.99999H155.604ZM159.828 1.99999H160.828V0.999992H159.828V1.99999ZM156.244 86.992L157.121 87.4733L157.124 87.4661L156.244 86.992ZM146.132 97.104L146.607 97.9839L146.613 97.9806L146.132 97.104ZM131.412 99.56C126.008 99.56 121.222 98.4387 117.032 96.2202L116.096 97.9878C120.61 100.377 125.723 101.56 131.412 101.56V99.56ZM117.045 96.2274C112.857 93.9279 109.577 90.6902 107.193 86.4977L105.455 87.4863C108.02 91.9978 111.567 95.5014 116.083 97.9806L117.045 96.2274ZM107.193 86.4977C104.817 82.3188 103.612 77.4172 103.612 71.76H101.612C101.612 77.7081 102.882 82.9612 105.455 87.4863L107.193 86.4977ZM103.612 71.76V1.99999H101.612V71.76H103.612ZM102.612 2.99999H106.836V0.999992H102.612V2.99999ZM105.836 1.99999V71.632H107.836V1.99999H105.836ZM105.836 71.632C105.836 76.8936 106.933 81.5461 109.162 85.5576L110.91 84.5864C108.872 80.9178 107.836 76.6104 107.836 71.632H105.836ZM109.167 85.566C111.388 89.475 114.419 92.5095 118.253 94.6492L119.227 92.9028C115.722 90.9465 112.951 88.1783 110.905 84.578L109.167 85.566ZM118.261 94.6539C122.174 96.7882 126.522 97.848 131.284 97.848V95.848C126.83 95.848 122.815 94.8598 119.219 92.8981L118.261 94.6539ZM131.284 97.848C136.039 97.848 140.342 96.8341 144.172 94.7858L143.228 93.0222C139.719 94.8992 135.745 95.848 131.284 95.848V97.848ZM144.179 94.7819C148.102 92.642 151.142 89.6021 153.282 85.6789L151.526 84.7211C149.57 88.3072 146.807 91.07 143.221 93.0261L144.179 94.7819ZM153.278 85.6856C155.508 81.6718 156.604 76.9758 156.604 71.632H154.604C154.604 76.6989 153.567 81.0482 151.53 84.7144L153.278 85.6856ZM156.604 71.632V1.99999H154.604V71.632H156.604ZM155.604 2.99999H159.828V0.999992H155.604V2.99999ZM158.828 1.99999V71.504H160.828V1.99999H158.828ZM158.828 71.504C158.828 77.2545 157.662 82.249 155.364 86.5179L157.124 87.4661C159.605 82.8603 160.828 77.5295 160.828 71.504H158.828ZM155.367 86.5107C153.07 90.6961 149.836 93.9296 145.651 96.2274L146.613 97.9806C151.132 95.4997 154.64 91.9919 157.121 87.4733L155.367 86.5107ZM145.657 96.2241C141.556 98.4386 136.817 99.56 131.412 99.56V101.56C137.1 101.56 142.175 100.377 146.607 97.9839L145.657 96.2241ZM178.064 40.4V39.4H177.064V40.4H178.064ZM182.16 40.4H183.16V39.4H182.16V40.4ZM182.16 53.712H181.16L183.086 54.0899L182.16 53.712ZM189.584 43.856L189.001 43.0436L188.991 43.0509L189.584 43.856ZM208.912 41.936H209.912V41.2629L209.288 41.0095L208.912 41.936ZM208.912 46.672L208.308 47.4687L209.912 48.6858V46.672H208.912ZM191.632 46.672L191.089 45.8323L191.077 45.8399L191.632 46.672ZM184.72 54.224L183.85 53.7304L183.845 53.7394L183.84 53.7485L184.72 54.224ZM182.16 98V99H183.16V98H182.16ZM178.064 98H177.064V99H178.064V98ZM178.064 41.4H182.16V39.4H178.064V41.4ZM181.16 40.4V53.712H183.16V40.4H181.16ZM183.086 54.0899C184.732 50.0576 187.1 46.9285 190.177 44.6611L188.991 43.0509C185.583 45.5622 183.002 49.0037 181.234 53.3341L183.086 54.0899ZM190.167 44.6683C193.322 42.4037 196.871 41.272 200.848 41.272V39.272C196.462 39.272 192.502 40.5296 189.001 43.0437L190.167 44.6683ZM200.848 41.272C203.35 41.272 205.911 41.7962 208.536 42.8625L209.288 41.0095C206.452 39.8572 203.636 39.272 200.848 39.272V41.272ZM207.912 41.936V46.672H209.912V41.936H207.912ZM209.516 45.8753C206.87 43.8677 203.885 42.856 200.592 42.856V44.856C203.443 44.856 206.005 45.7217 208.308 47.4687L209.516 45.8753ZM200.592 42.856C197.304 42.856 194.131 43.8639 191.089 45.8324L192.175 47.5116C194.936 45.7255 197.736 44.856 200.592 44.856V42.856ZM191.077 45.8399C188.122 47.8102 185.714 50.4473 183.85 53.7304L185.59 54.7176C187.31 51.686 189.51 49.2885 192.187 47.504L191.077 45.8399ZM183.84 53.7485C182.055 57.0517 181.16 60.5857 181.16 64.336H183.16C183.16 60.9183 183.972 57.711 185.6 54.6995L183.84 53.7485ZM181.16 64.336V98H183.16V64.336H181.16ZM182.16 97H178.064V99H182.16V97ZM179.064 98V40.4H177.064V98H179.064ZM263.957 5.712H264.957V4.712H263.957V5.712ZM241.813 5.712H240.813V6.712H241.813V5.712ZM241.813 1.99999V0.999992H240.813V1.99999H241.813ZM290.069 1.99999H291.069V0.999992H290.069V1.99999ZM290.069 5.712V6.712H291.069V5.712H290.069ZM268.181 5.712V4.712H267.181V5.712H268.181ZM268.181 98V99H269.181V98H268.181ZM263.957 98H262.957V99H263.957V98ZM263.957 4.712H241.813V6.712H263.957V4.712ZM242.813 5.712V1.99999H240.813V5.712H242.813ZM241.813 2.99999H290.069V0.999992H241.813V2.99999ZM289.069 1.99999V5.712H291.069V1.99999H289.069ZM290.069 4.712H268.181V6.712H290.069V4.712ZM267.181 5.712V98H269.181V5.712H267.181ZM268.181 97H263.957V99H268.181V97ZM264.957 98V5.712H262.957V98H264.957ZM292.939 40.4V39.4H291.939V40.4H292.939ZM297.035 40.4H298.035V39.4H297.035V40.4ZM297.035 53.712H296.035L297.961 54.0899L297.035 53.712ZM304.459 43.856L303.876 43.0436L303.866 43.0509L304.459 43.856ZM323.787 41.936H324.787V41.2629L324.163 41.0095L323.787 41.936ZM323.787 46.672L323.183 47.4687L324.787 48.6858V46.672H323.787ZM306.507 46.672L305.964 45.8323L305.952 45.8399L306.507 46.672ZM299.595 54.224L298.725 53.7304L298.72 53.7394L298.715 53.7485L299.595 54.224ZM297.035 98V99H298.035V98H297.035ZM292.939 98H291.939V99H292.939V98ZM292.939 41.4H297.035V39.4H292.939V41.4ZM296.035 40.4V53.712H298.035V40.4H296.035ZM297.961 54.0899C299.607 50.0576 301.975 46.9285 305.052 44.6611L303.866 43.0509C300.458 45.5622 297.877 49.0037 296.109 53.3341L297.961 54.0899ZM305.042 44.6683C308.197 42.4037 311.746 41.272 315.723 41.272V39.272C311.337 39.272 307.377 40.5296 303.876 43.0437L305.042 44.6683ZM315.723 41.272C318.225 41.272 320.786 41.7962 323.411 42.8625L324.163 41.0095C321.327 39.8572 318.511 39.272 315.723 39.272V41.272ZM322.787 41.936V46.672H324.787V41.936H322.787ZM324.391 45.8753C321.745 43.8677 318.76 42.856 315.467 42.856V44.856C318.318 44.856 320.88 45.7217 323.183 47.4687L324.391 45.8753ZM315.467 42.856C312.179 42.856 309.006 43.8639 305.964 45.8324L307.05 47.5116C309.811 45.7255 312.611 44.856 315.467 44.856V42.856ZM305.952 45.8399C302.997 47.8102 300.589 50.4473 298.725 53.7304L300.465 54.7176C302.185 51.686 304.385 49.2885 307.062 47.504L305.952 45.8399ZM298.715 53.7485C296.93 57.0517 296.035 60.5857 296.035 64.336H298.035C298.035 60.9183 298.847 57.711 300.475 54.6995L298.715 53.7485ZM296.035 64.336V98H298.035V64.336H296.035ZM297.035 97H292.939V99H297.035V97ZM293.939 98V40.4H291.939V98H293.939ZM345.843 95.312L345.34 96.1763L345.34 96.1763L345.843 95.312ZM334.707 84.304L333.843 84.8069L333.847 84.8138L334.707 84.304ZM334.707 54.224L335.567 54.7338L335.571 54.7269L334.707 54.224ZM345.843 43.088L345.34 42.2236L345.34 42.2236L345.843 43.088ZM376.819 43.472L376.302 44.3283L376.313 44.3347L376.819 43.472ZM387.187 54.864L386.264 55.2498L388.187 54.864H387.187ZM387.187 40.4V39.4H386.187V40.4H387.187ZM391.283 40.4H392.283V39.4H391.283V40.4ZM391.283 98V99H392.283V98H391.283ZM387.187 98H386.187V99H387.187V98ZM387.187 83.664H388.187L386.286 83.2297L387.187 83.664ZM376.435 95.184L376.943 96.0456L376.947 96.0428L376.435 95.184ZM374.387 92.24L374.899 93.0991L374.905 93.0951L374.912 93.091L374.387 92.24ZM383.859 82.512L382.995 82.0081L382.992 82.0139L383.859 82.512ZM383.859 56.016L382.995 56.5199L382.995 56.5199L383.859 56.016ZM374.259 46.288L373.734 47.139L373.741 47.1431L373.747 47.1471L374.259 46.288ZM348.019 46.288L347.502 45.432L347.494 45.437L348.019 46.288ZM338.291 56.144L337.435 55.6269L337.431 55.6335L337.427 55.6401L338.291 56.144ZM338.291 82.512L337.427 83.0159L337.433 83.0266L337.44 83.0371L338.291 82.512ZM348.147 92.24L347.63 93.0959L347.636 93.0999L347.643 93.1038L348.147 92.24ZM361.075 98.408C355.789 98.408 350.886 97.0889 346.346 94.4477L345.34 96.1763C350.187 98.9964 355.438 100.408 361.075 100.408V98.408ZM346.346 94.4477C341.798 91.8015 338.21 88.2534 335.567 83.7942L333.847 84.8138C336.666 89.5706 340.501 93.3611 345.34 96.1763L346.346 94.4477ZM335.571 83.8011C332.929 79.2589 331.611 74.3975 331.611 69.2H329.611C329.611 74.7545 331.024 79.9625 333.843 84.8069L335.571 83.8011ZM331.611 69.2C331.611 64.0027 332.928 59.1869 335.567 54.7338L333.847 53.7142C331.024 58.4771 329.611 63.6453 329.611 69.2H331.611ZM335.571 54.7269C338.215 50.1833 341.802 46.5959 346.346 43.9523L345.34 42.2236C340.497 45.0415 336.66 48.878 333.843 53.7211L335.571 54.7269ZM346.346 43.9523C350.886 41.3111 355.789 39.992 361.075 39.992V37.992C355.438 37.992 350.187 39.4036 345.34 42.2236L346.346 43.9523ZM361.075 39.992C366.432 39.992 371.502 41.4315 376.302 44.3282L377.336 42.6158C372.237 39.5392 366.812 37.992 361.075 37.992V39.992ZM376.313 44.3347C381.101 47.1411 384.396 50.7816 386.264 55.2498L388.11 54.4782C386.053 49.5597 382.436 45.6056 377.325 42.6093L376.313 44.3347ZM388.187 54.864V40.4H386.187V54.864H388.187ZM387.187 41.4H391.283V39.4H387.187V41.4ZM390.283 40.4V98H392.283V40.4H390.283ZM391.283 97H387.187V99H391.283V97ZM388.187 98V83.664H386.187V98H388.187ZM386.286 83.2297C384.073 87.8197 380.63 91.5171 375.923 94.3252L376.947 96.0428C381.968 93.0482 385.693 89.0656 388.088 84.0983L386.286 83.2297ZM375.927 94.3225C371.3 97.0493 366.355 98.408 361.075 98.408V100.408C366.718 100.408 372.013 98.9507 376.943 96.0455L375.927 94.3225ZM361.331 96.824C366.204 96.824 370.732 95.5812 374.899 93.0991L373.875 91.3809C370.02 93.6775 365.845 94.824 361.331 94.824V96.824ZM374.912 93.091C379.062 90.5307 382.338 87.1679 384.726 83.0101L382.992 82.0139C380.772 85.8775 377.734 88.9999 373.862 91.389L374.912 93.091ZM384.723 83.0159C387.202 78.7657 388.443 74.1543 388.443 69.2H386.443C386.443 73.8031 385.295 78.0663 382.995 82.0081L384.723 83.0159ZM388.443 69.2C388.443 64.3277 387.2 59.7594 384.723 55.5121L382.995 56.5199C385.296 60.4646 386.443 64.6856 386.443 69.2H388.443ZM384.723 55.5121C382.25 51.2722 378.929 47.9063 374.771 45.4289L373.747 47.1471C377.61 49.4483 380.69 52.5678 382.995 56.5199L384.723 55.5121ZM374.784 45.437C370.616 42.8653 366.083 41.576 361.203 41.576V43.576C365.71 43.576 369.88 44.7613 373.734 47.139L374.784 45.437ZM361.203 41.576C356.324 41.576 351.751 42.8651 347.502 45.4321L348.536 47.1439C352.479 44.7616 356.696 43.576 361.203 43.576V41.576ZM347.494 45.437C343.346 47.9964 339.991 51.3971 337.435 55.6269L339.147 56.6611C341.541 52.6989 344.671 49.5289 348.544 47.139L347.494 45.437ZM337.427 55.6401C334.95 59.8874 333.707 64.4557 333.707 69.328H335.707C335.707 64.8136 336.854 60.5926 339.155 56.6479L337.427 55.6401ZM333.707 69.328C333.707 74.2003 334.95 78.7686 337.427 83.0159L339.155 82.0081C336.854 78.0634 335.707 73.8424 335.707 69.328H333.707ZM337.44 83.0371C339.999 87.1852 343.4 90.5404 347.63 93.0959L348.664 91.3841C344.702 88.9903 341.532 85.8602 339.142 81.9869L337.44 83.0371ZM347.643 93.1038C351.89 95.5814 356.459 96.824 361.331 96.824V94.824C356.817 94.824 352.596 93.6773 348.651 91.3762L347.643 93.1038ZM455.469 40.4L456.371 40.8308L457.054 39.4H455.469V40.4ZM427.181 99.664L426.279 100.096L427.183 101.981L428.083 100.095L427.181 99.664ZM398.765 40.4V39.4H397.177L397.863 40.8323L398.765 40.4ZM403.245 40.4L404.147 39.9676L403.875 39.4H403.245V40.4ZM427.181 90.32L426.279 90.7524L427.183 92.638L428.084 90.7505L427.181 90.32ZM450.989 40.4V39.4H450.358L450.086 39.9695L450.989 40.4ZM454.567 39.9692L426.279 99.2332L428.083 100.095L456.371 40.8308L454.567 39.9692ZM428.083 99.2316L399.667 39.9676L397.863 40.8323L426.279 100.096L428.083 99.2316ZM398.765 41.4H403.245V39.4H398.765V41.4ZM402.343 40.8324L426.279 90.7524L428.083 89.8876L404.147 39.9676L402.343 40.8324ZM428.084 90.7505L451.892 40.8305L450.086 39.9695L426.278 89.8895L428.084 90.7505ZM450.989 41.4H455.469V39.4H450.989V41.4ZM502.393 92.496L501.895 91.6289L501.895 91.6289L502.393 92.496ZM512.377 83.024H513.377V79.6917L511.542 82.4734L512.377 83.024ZM512.377 89.552L513.119 90.222L513.377 89.9365V89.552H512.377ZM502.009 97.232L502.388 98.1575L502.397 98.1539L502.405 98.1501L502.009 97.232ZM474.233 95.312L473.712 96.1653L473.719 96.1695L474.233 95.312ZM463.097 84.048L462.233 84.5509L462.24 84.5625L463.097 84.048ZM463.097 53.712L463.953 54.2289L463.957 54.2218L463.097 53.712ZM474.233 42.96L473.761 42.0785L473.754 42.0821L474.233 42.96ZM512.761 49.616L513.464 50.3276L514.139 49.6604L513.508 48.9511L512.761 49.616ZM472.569 89.296L471.866 88.5844L471.075 89.3657L471.936 90.07L472.569 89.296ZM480.761 94.416L480.374 95.3382L480.387 95.3436L480.4 95.3486L480.761 94.416ZM470.137 86.864L469.406 87.5459L470.109 88.3009L470.842 87.5735L470.137 86.864ZM507.641 49.616L508.346 50.3255L509.105 49.5713L508.301 48.8648L507.641 49.616ZM499.449 44.368L499.062 45.2902L499.075 45.2956L499.088 45.3006L499.449 44.368ZM476.025 46.16L476.509 47.0351L476.515 47.0316L476.025 46.16ZM489.721 96.952C494.341 96.952 498.736 95.7503 502.891 93.3631L501.895 91.6289C498.029 93.8497 493.976 94.952 489.721 94.952V96.952ZM502.891 93.3631C507.042 90.9783 510.484 87.7104 513.212 83.5746L511.542 82.4734C508.979 86.3589 505.765 89.4057 501.895 91.6289L502.891 93.3631ZM511.377 83.024V89.552H513.377V83.024H511.377ZM511.635 88.882C508.559 92.2903 505.217 94.7576 501.613 96.3139L502.405 98.1501C506.311 96.4638 509.88 93.811 513.119 90.222L511.635 88.882ZM501.63 96.3065C498.015 97.7854 493.881 98.536 489.209 98.536V100.536C494.095 100.536 498.493 99.7506 502.388 98.1575L501.63 96.3065ZM489.209 98.536C484.106 98.536 479.291 97.1806 474.747 94.4545L473.719 96.1695C478.562 99.0754 483.731 100.536 489.209 100.536V98.536ZM474.754 94.4587C470.286 91.7281 466.689 88.0904 463.954 83.5335L462.24 84.5625C465.137 89.3923 468.964 93.2639 473.712 96.1653L474.754 94.4587ZM463.961 83.5451C461.317 79.0003 460.001 74.1812 460.001 69.072H458.001C458.001 74.5441 459.416 79.7091 462.233 84.5509L463.961 83.5451ZM460.001 69.072C460.001 63.5213 461.324 58.5828 463.953 54.2289L462.241 53.1951C459.408 57.8865 458.001 63.188 458.001 69.072H460.001ZM463.957 54.2218C466.596 49.7683 470.177 46.3116 474.712 43.8379L473.754 42.0821C468.903 44.7284 465.059 48.4397 462.237 53.2022L463.957 54.2218ZM474.705 43.8415C479.328 41.3647 484.455 40.12 490.105 40.12V38.12C484.149 38.12 478.695 39.4353 473.761 42.0785L474.705 43.8415ZM490.105 40.12C498.677 40.12 505.963 43.4833 512.014 50.2809L513.508 48.9511C507.101 41.754 499.283 38.12 490.105 38.12V40.12ZM512.058 48.9044L471.866 88.5844L473.272 90.0076L513.464 50.3276L512.058 48.9044ZM471.936 90.07C474.807 92.4195 477.62 94.1832 480.374 95.3382L481.148 93.4938C478.611 92.4302 475.963 90.7805 473.202 88.522L471.936 90.07ZM480.4 95.3486C483.179 96.4241 486.291 96.952 489.721 96.952V94.952C486.495 94.952 483.634 94.4559 481.122 93.4834L480.4 95.3486ZM462.097 68.688C462.097 76.0156 464.534 82.3202 469.406 87.5459L470.868 86.1821C466.353 81.3384 464.097 75.5257 464.097 68.688H462.097ZM470.842 87.5735L508.346 50.3255L506.936 48.9065L469.432 86.1545L470.842 87.5735ZM508.301 48.8648C505.424 46.3361 502.594 44.513 499.81 43.4354L499.088 45.3006C501.595 46.271 504.226 47.9466 506.981 50.3672L508.301 48.8648ZM499.836 43.4458C497.039 42.2729 493.744 41.704 489.977 41.704V43.704C493.549 43.704 496.568 44.2444 499.062 45.2902L499.836 43.4458ZM489.977 41.704C484.619 41.704 479.796 42.8914 475.535 45.2884L476.515 47.0316C480.446 44.8206 484.924 43.704 489.977 43.704V41.704ZM475.541 45.285C471.375 47.5898 468.086 50.7887 465.691 54.8698L467.415 55.8822C469.628 52.1126 472.654 49.1675 476.509 47.035L475.541 45.285ZM465.691 54.8698C463.289 58.9619 462.097 63.5767 462.097 68.688H464.097C464.097 63.9006 465.209 59.6408 467.415 55.8822L465.691 54.8698ZM547.452 99.152V100.152H548.452V99.152H547.452ZM536.444 96.464L535.953 97.335L535.961 97.3398L535.97 97.3445L536.444 96.464ZM528.508 88.656L529.369 88.148L529.369 88.148L528.508 88.656ZM525.564 1.99999V0.999992H524.564V1.99999H525.564ZM529.66 1.99999H530.66V0.999992H529.66V1.99999ZM531.964 86.736L531.092 87.2263L531.098 87.2365L531.104 87.2465L531.964 86.736ZM538.492 93.264L537.981 94.1239L537.992 94.1298L538.002 94.1356L538.492 93.264ZM547.452 95.568H548.452V94.568H547.452V95.568ZM547.452 98.152C543.596 98.152 540.091 97.2923 536.918 95.5835L535.97 97.3445C539.453 99.2197 543.286 100.152 547.452 100.152V98.152ZM536.935 95.593C533.762 93.8031 531.244 91.3264 529.369 88.148L527.647 89.164C529.698 92.6416 532.47 95.3703 535.953 97.335L536.935 95.593ZM529.369 88.148C527.503 84.9833 526.564 81.4485 526.564 77.52H524.564C524.564 81.7835 525.588 85.6727 527.647 89.164L529.369 88.148ZM526.564 77.52V1.99999H524.564V77.52H526.564ZM525.564 2.99999H529.66V0.999992H525.564V2.99999ZM528.66 1.99999V77.52H530.66V1.99999H528.66ZM528.66 77.52C528.66 81.0893 529.465 84.3327 531.092 87.2263L532.836 86.2457C531.391 83.6779 530.66 80.7774 530.66 77.52H528.66ZM531.104 87.2465C532.811 90.121 535.107 92.4171 537.981 94.1239L539.003 92.4041C536.416 90.8682 534.36 88.8123 532.824 86.2255L531.104 87.2465ZM538.002 94.1356C540.887 95.7588 544.044 96.568 547.452 96.568V94.568C544.375 94.568 541.558 93.8412 538.982 92.3924L538.002 94.1356ZM546.452 95.568V99.152H548.452V95.568H546.452Z" fill="black"/>
</svg>
