<svg width="702" height="207" viewBox="0 0 702 207" fill="none" xmlns="http://www.w3.org/2000/svg">
<path d="M15.2 29.2C15.2 27.2 16.5333 25.4667 19.2 24L42.6 14.8C43.1333 14.5333 43.8667 14.4 44.8 14.4C45.8667 14.4 46.8 14.8667 47.6 15.8C48.4 16.7333 49.2667 17.2 50.2 17.2C51.1333 17.2 53.0667 16.8667 56 16.2C59.0667 15.4 63.1333 14.4667 68.2 13.4C73.2667 12.2 78.9333 11.0667 85.2 10C99.8667 7.46666 115.133 6.2 131 6.2C149.8 6.2 163.267 7.6 171.4 10.4C174.6 11.6 177.267 13.2667 179.4 15.4C181.667 17.4 182.8 19.8667 182.8 22.8C182.8 24.5333 181.6 25.4 179.2 25.4C145.867 26.3333 118.6 28.4667 97.4 31.8C95.2667 32.0667 94.2 32.8 94.2 34C94.2 34.4 94.2 34.8 94.2 35.2C94.3333 35.4667 93.8667 36.2 92.8 37.4L70.2 61.6C69.2667 62.5333 68.8 63.2667 68.8 63.8C68.8 64.2 68.9333 64.4 69.2 64.4C69.6 64.4 70.4667 64.2667 71.8 64C80.4667 63.4667 88.4667 63.2 95.8 63.2C103.133 63.2 107.333 63.6 108.4 64.4C114.267 68.8 117.667 71.6667 118.6 73C119.667 74.3333 120.2 75.4 120.2 76.2C120.2 77.9333 118.733 79 115.8 79.4C80.6 82.8667 61.6 84.6 58.8 84.6C56 84.4667 54.2 84.4 53.4 84.4C51.2667 84.4 48.8667 86.0667 46.2 89.4L21.8 121.8C21.1333 122.867 20.8 123.667 20.8 124.2C20.8 124.6 21.0667 124.8 21.6 124.8C22.1333 124.8 22.9333 124.533 24 124C36.5333 122 48.2 121 59 121C69.9333 121 78.0667 121.333 83.4 122C90.7333 122 98.6 127.4 107 138.2C107.667 139.133 108 140 108 140.8C108 141.6 107 142 105 142C71.8 142 46.5333 142.667 29.2 144C28.5333 144.133 27.6667 144.2 26.6 144.2C20.8667 144.2 16.9333 142.867 14.8 140.2C14.4 139.4 13.7333 139 12.8 139C11.8667 139 11.0667 139.467 10.4 140.4C9.6 141.333 9 141.8 8.6 141.8C8.2 141.8 7.4 141.4 6.2 140.6C5 139.8 3.8 138.4 2.6 136.4C1.26667 134.533 0.599999 132.533 0.599999 130.4C0.599999 128.133 1.06667 126.067 2 124.2C2.8 122.333 3.93333 119.933 5.4 117C6.73333 114.067 9.8 109.067 14.6 102C19.5333 94.8 24.6667 88.6667 30 83.6C30.6667 82.9333 31 82.3333 31 81.8C31 81.1333 30.2667 80.8 28.8 80.8C27.4667 80.8 26.0667 80.3333 24.6 79.4C23.2667 78.3333 22.6 76.9333 22.6 75.2C22.6 73.3333 24.9333 71.8 29.6 70.6L40.4 67.8C40.5333 67.8 40.6 67.8 40.6 67.8C42.7333 67.8 44.8667 66.4 47 63.6C62.4667 48.5333 71.9333 40.1333 75.4 38.4C76.6 37.6 77.2 37 77.2 36.6C77.2 36.0667 76.8 35.8 76 35.8C75.2 35.8 74.5333 35.8667 74 36C61.6 38 51.7333 39 44.4 39C37.0667 39 31.7333 38.6667 28.4 38C25.0667 37.3333 22.6 36.5333 21 35.6C17.5333 33.3333 15.6667 31.5333 15.4 30.2L15.2 29.2ZM154.433 65.8C155.499 65.8 157.233 66.3333 159.633 67.4C162.166 68.4667 163.433 69.6667 163.433 71C163.433 71.9333 163.099 72.8667 162.433 73.8L147.433 94.6C145.699 96.7333 144.833 97.9333 144.833 98.2C144.833 98.4667 144.899 98.6 145.033 98.6L146.033 98C161.499 87.2 174.233 77.7333 184.233 69.6C186.099 68.2667 187.633 67.6 188.833 67.6C190.166 67.6 191.033 67.7333 191.433 68L197.033 69.6C198.366 70.2667 199.033 71.1333 199.033 72.2C199.033 73.2667 198.766 74.1333 198.233 74.8C195.699 77.6 192.766 80.8 189.433 84.4C186.233 87.8667 183.833 90.5333 182.233 92.4C180.633 94.1333 178.833 96.1333 176.833 98.4C174.833 100.667 173.366 102.4 172.433 103.6C171.633 104.8 170.699 106.2 169.633 107.8C168.566 109.267 167.833 110.533 167.433 111.6C166.633 114.667 166.233 117.333 166.233 119.6C166.233 120.8 166.966 121.4 168.433 121.4C170.033 121.4 172.833 120.467 176.833 118.6C180.966 116.733 185.833 113.867 191.433 110C197.166 106.133 204.699 100.667 214.033 93.6C223.499 86.4 231.766 80.3333 238.833 75.4C240.033 76.3333 240.633 77.4667 240.633 78.8C240.633 80.1333 240.033 81.3333 238.833 82.4C234.566 86.5333 229.166 91.7333 222.633 98C216.099 104.133 206.099 112.4 192.633 122.8C179.299 133.2 169.966 138.4 164.633 138.4C154.366 138.4 149.233 132.933 149.233 122C149.233 117.867 150.833 113.533 154.033 109L162.633 97.2C163.433 96 163.833 95.3333 163.833 95.2C163.833 94.9333 163.433 95.1333 162.633 95.8C139.433 115.133 124.633 126.467 118.233 129.8C117.166 130.467 115.833 130.8 114.233 130.8C109.833 130.8 107.633 128.8 107.633 124.8C107.633 123.467 107.966 122.267 108.633 121.2C118.499 112.133 125.433 104.733 129.433 99C132.633 95.8 135.966 91.3333 139.433 85.6C143.033 79.8667 146.033 75.1333 148.433 71.4C150.966 67.6667 152.966 65.8 154.433 65.8ZM242.425 63.8L251.025 64.2C252.758 64.3333 253.625 64.9333 253.625 66C253.625 66.5333 251.492 69.6667 247.225 75.4C243.092 81 236.625 89.9333 227.825 102.2C219.158 114.467 212.025 124.533 206.425 132.4C200.825 140.4 194.892 148.733 188.625 157.4C182.225 166.067 176.758 173 172.225 178.2C167.558 183.533 162.758 188.533 157.825 193.2C148.625 201.733 139.358 206 130.025 206C128.292 206 125.958 205 123.025 203C119.958 201 118.425 198.067 118.425 194.2C118.425 190.467 121.958 184.2 129.025 175.4C136.092 166.733 144.558 158.733 154.425 151.4C164.158 144.067 172.225 140.4 178.625 140.4C179.158 140.4 179.425 140.533 179.425 140.8C179.558 141.067 179.758 141.2 180.025 141.2C180.158 141.2 180.425 141 180.825 140.6L236.825 66.8C237.758 64.8 239.625 63.8 242.425 63.8ZM131.825 194C135.292 194 143.825 185.933 157.425 169.8C171.025 153.8 177.825 145.133 177.825 143.8C177.825 143.533 177.692 143.4 177.425 143.4C174.492 143.4 166.092 150.667 152.225 165.2C138.225 179.867 131.225 189.267 131.225 193.4C131.225 193.8 131.425 194 131.825 194ZM269.225 28.6C270.558 28.6 271.425 28.8667 271.825 29.4C273.692 31.6667 274.625 33.5333 274.625 35C274.625 36.3333 274.225 37.5333 273.425 38.6C272.625 39.5333 271.625 40.6667 270.425 42C269.358 43.2 267.092 44.9333 263.625 47.2C260.292 49.3333 257.025 50.4 253.825 50.4C251.425 50 250.225 48.5333 250.225 46C250.225 42 252.625 38.1333 257.425 34.4C262.225 30.5333 266.158 28.6 269.225 28.6ZM251.916 123.2C256.182 123.2 261.449 120.4 267.716 114.8C273.982 109.2 277.249 105.333 277.516 103.2C275.916 101.867 274.182 99.4667 272.316 96C270.582 92.4 269.649 90.6 269.516 90.6C265.382 94.4667 261.716 98.9333 258.516 104C253.449 112.533 250.916 118.4 250.916 121.6C250.916 122.667 251.249 123.2 251.916 123.2ZM295.116 74.2C293.782 74.2 290.982 76.2667 286.716 80.4C282.582 84.5333 280.516 87.4 280.516 89C280.516 89.4 280.916 90.2 281.716 91.4C282.516 92.6 283.116 93.2 283.516 93.2C285.782 93.2 288.316 90.4667 291.116 85C294.049 79.5333 295.516 76.4 295.516 75.6C295.516 74.6667 295.382 74.2 295.116 74.2ZM295.516 100C299.249 100 305.049 97.7333 312.916 93.2C320.916 88.6667 327.916 84.1333 333.916 79.6L342.916 72.6C344.116 73.5333 344.716 74.6667 344.716 76C344.716 77.3333 344.116 78.5333 342.916 79.6C320.916 100 304.249 110.2 292.916 110.2C292.116 110.2 290.916 110.067 289.316 109.8C274.249 127.267 261.316 136 250.516 136C243.316 134.933 238.782 132.4 236.916 128.4C235.849 126.4 235.316 123.867 235.316 120.8C235.316 112 240.382 101.533 250.516 89.4C260.649 77.1333 273.382 68.1333 288.716 62.4C290.049 62.4 291.049 62.7333 291.716 63.4C292.382 63.9333 292.982 64.2667 293.516 64.4C294.049 64.4 294.716 64.1333 295.516 63.6C296.449 62.9333 297.649 62.6 299.116 62.6C300.582 62.4667 302.116 63.2667 303.716 65C305.849 66.7333 306.916 68.8667 306.916 71.4C306.916 78.8667 303.116 88.4 295.516 100ZM381.941 67.4C388.207 68.0667 391.341 69.4667 391.341 71.6C391.341 72.5333 390.807 73.6 389.741 74.8C370.941 95.7333 349.341 122.4 324.941 154.8C317.874 164.4 310.674 173.467 303.341 182C296.007 190.533 289.141 196.733 282.741 200.6C276.341 204.6 269.674 206.6 262.741 206.6C259.274 206.6 256.207 205.667 253.541 203.8C250.874 201.933 249.541 199.4 249.541 196.2C249.541 188.733 253.141 181 260.341 173C267.541 165 275.607 158.467 284.541 153.4C293.474 148.467 301.207 145.6 307.741 144.8L311.941 145.4C313.274 145.267 318.141 140.133 326.541 130C335.074 119.867 339.341 114.533 339.341 114C339.474 113.333 339.407 113 339.141 113L335.341 116C325.341 125.333 317.541 130 311.941 130C308.341 130 306.541 127.467 306.541 122.4C306.541 115.6 312.074 104.867 323.141 90.2C334.207 75.5333 342.341 68.2 347.541 68.2C347.941 68.2 348.407 68.3333 348.941 68.6C352.674 69.5333 354.541 70.8667 354.541 72.6C354.541 73.2667 354.341 73.8 353.941 74.2C353.674 74.4667 352.341 75.7333 349.941 78C347.674 80.2667 345.407 82.6667 343.141 85.2C340.874 87.6 338.474 90.2667 335.941 93.2C330.207 99.8667 327.341 104.867 327.341 108.2C327.341 109 327.741 109.4 328.541 109.4C329.474 109.4 331.141 108.667 333.541 107.2C352.474 94.2667 367.274 81.9333 377.941 70.2C378.874 68.3333 380.207 67.4 381.941 67.4ZM259.941 197.8C264.607 196.333 270.874 191.733 278.741 184C286.607 176.4 293.341 169.2 298.941 162.4L307.341 152C308.141 150.933 308.541 150.267 308.541 150C308.541 149.733 308.341 149.6 307.941 149.6C303.674 149.6 297.607 152.867 289.741 159.4C281.741 165.933 274.674 173.067 268.541 180.8C262.274 188.533 259.141 194 259.141 197.2C259.141 197.6 259.407 197.8 259.941 197.8ZM426.361 34.4C424.494 34.4 421.228 32.6 416.561 29C411.761 25.4 409.361 22.4667 409.361 20.2C409.361 17.9333 410.961 16.2 414.161 15C420.294 12.3333 426.494 10.2667 432.761 8.79999L435.761 8.2C436.428 7.93333 437.028 7.79999 437.561 7.79999C438.494 7.79999 438.961 8.33332 438.961 9.39999C438.961 10.3333 439.494 10.8 440.561 10.8C441.628 10.8 446.494 9.86667 455.161 8C481.161 2.66666 505.761 -5.24521e-06 528.961 -5.24521e-06C542.561 -5.24521e-06 554.094 1.66666 563.561 4.99999C573.161 8.2 577.961 12.8 577.961 18.8C577.961 20.1333 576.094 20.8 572.361 20.8C568.761 20.8 564.361 20.8667 559.161 21C554.094 21.1333 547.694 21.3333 539.961 21.6C521.828 22.4 512.761 24.2 512.761 27C512.761 27.5333 512.894 27.9333 513.161 28.2C513.161 28.8667 512.428 30 510.961 31.6C509.494 33.0667 507.228 35.4667 504.161 38.8C501.094 42.1333 495.361 48.5333 486.961 58C478.561 67.3333 470.828 76.1333 463.761 84.4C445.494 106 432.894 122.667 425.961 134.4C425.561 138.933 424.228 141.2 421.961 141.2C420.228 141.2 417.961 139.867 415.161 137.2C412.228 134.533 410.761 131.267 410.761 127.4C410.761 120.2 416.161 110.067 426.961 97C437.761 83.9333 459.094 62.9333 490.961 34C492.428 32.5333 493.761 31.3333 494.961 30.4C496.828 28.9333 497.761 28.0667 497.761 27.8C497.761 27.5333 497.361 27.4 496.561 27.4C495.761 27.4 494.161 27.5333 491.761 27.8L430.561 33.8C429.628 34.2 428.228 34.4 426.361 34.4ZM474.869 94.6C482.202 89.5333 489.869 84.0667 497.869 78.2C493.602 75.2667 490.869 72.4 489.669 69.6C489.269 68.6667 489.069 68 489.069 67.6C489.069 64.9333 489.935 63.2 491.669 62.4C493.402 61.4667 496.202 61 500.069 61C501.535 61 505.869 62.8 513.069 66.4C520.269 70 524.802 71.8 526.669 71.8C528.669 71.8 531.402 71.2667 534.869 70.2C538.335 69 541.069 68.4 543.069 68.4C545.202 68.4 546.735 68.8667 547.669 69.8C551.002 74.2 552.669 76.8667 552.669 77.8C552.669 78.7333 552.202 79.5333 551.269 80.2C550.469 80.7333 547.735 82.6 543.069 85.8C538.535 89 534.069 92.2667 529.669 95.6C525.269 98.9333 521.135 102.667 517.269 106.8C513.402 110.933 511.469 114.267 511.469 116.8C511.469 117.2 511.802 117.4 512.469 117.4C519.669 117.4 543.935 102.8 585.269 73.6C586.202 73.6 586.669 74.4667 586.669 76.2C586.669 77.8 581.402 83.5333 570.869 93.4C560.335 103.133 548.402 112.733 535.069 122.2C521.869 131.533 512.269 136.2 506.269 136.2C496.935 136.2 492.269 131.533 492.269 122.2C492.269 117.133 493.935 112.267 497.269 107.6C500.735 102.8 507.935 96.4 518.869 88.4C516.602 88.4 513.535 87.8667 509.669 86.8C505.802 85.6 503.335 84.2 502.269 82.6C498.802 85.6667 492.802 90.8 484.269 98C482.269 99.4667 479.669 100.2 476.469 100.2C473.269 100.2 471.669 99.7333 471.669 98.8C471.669 97.7333 472.735 96.3333 474.869 94.6ZM620.677 33C622.01 33 622.877 33.2667 623.277 33.8C625.143 36.0667 626.077 37.9333 626.077 39.4C626.077 40.7333 625.677 41.9333 624.877 43C624.077 43.9333 623.077 45.0667 621.877 46.4C620.81 47.6 618.543 49.3333 615.077 51.6C611.743 53.7333 608.477 54.8 605.277 54.8C602.877 54.4 601.677 52.9333 601.677 50.4C601.677 46.4 604.077 42.5333 608.877 38.8C613.677 34.9333 617.61 33 620.677 33ZM572.677 111.8C571.61 113.667 571.077 115.333 571.077 116.8C571.077 118.267 571.877 119 573.477 119C574.41 119 576.01 118.6 578.277 117.8C603.21 104.733 627.61 89.3333 651.477 71.6C652.677 72.5333 653.277 73.6667 653.277 75C653.277 76.3333 652.61 77.6 651.277 78.8C649.943 80 648.01 81.7333 645.477 84C643.077 86.2667 638.41 90.3333 631.477 96.2C624.543 102.067 618.077 107.4 612.077 112.2C596.343 124.867 584.743 132.333 577.277 134.6C574.877 135.267 572.277 135.6 569.477 135.6C559.21 135.6 554.077 130.133 554.077 119.2C554.077 114.933 556.41 108.867 561.077 101C565.743 93 570.543 86 575.477 80C580.41 73.8667 583.677 70.4667 585.277 69.8C587.677 68.3333 590.277 67.6 593.077 67.6C595.877 67.6 598.543 68.1333 601.077 69.2C601.877 69.6 602.277 70.1333 602.277 70.8C602.277 71.4667 601.61 72.4667 600.277 73.8C599.077 75.1333 597.143 77.2 594.477 80C591.943 82.8 588.077 87.6667 582.877 94.6C577.81 101.4 574.41 107.133 572.677 111.8ZM632.038 126C636.438 126 643.104 123.467 652.038 118.4C661.104 113.2 669.171 107.6 676.238 101.6C683.438 95.6 687.038 91.4 687.038 89C687.038 88.6 686.838 88.4 686.438 88.4C683.504 88.4 677.304 91.4 667.838 97.4C658.504 103.267 649.838 109.267 641.838 115.4C633.838 121.4 629.838 124.667 629.838 125.2C629.838 125.733 630.571 126 632.038 126ZM682.838 41.6C684.304 41.6 685.904 42.7333 687.638 45C689.371 47.1333 690.238 48.7333 690.238 49.8C690.238 50.8667 690.038 51.6 689.638 52C680.438 60 671.504 68.4 662.838 77.2C654.171 86 647.771 92.8 643.638 97.6L637.638 104.8C636.571 105.867 636.038 106.6 636.038 107C636.038 107.4 636.171 107.6 636.438 107.6C636.704 107.6 637.038 107.4 637.438 107L639.238 105.6C661.104 86.1333 678.104 76.4 690.238 76.4C691.838 76.4 693.304 76.8667 694.638 77.8C699.171 81.5333 701.438 85.8 701.438 90.6C701.438 95.2667 698.038 101.267 691.238 108.6C684.571 115.933 676.304 122.4 666.438 128C656.571 133.467 648.304 136.2 641.638 136.2C635.104 136.2 630.771 134.467 628.638 131L626.438 127.8C626.304 127.667 626.104 127.6 625.838 127.6C622.904 127.6 613.238 136.933 596.837 155.6C580.304 174.267 569.704 187.8 565.037 196.2C564.504 198.6 563.437 199.8 561.837 199.8C561.037 199.8 560.304 199.533 559.637 199L550.637 192C550.104 191.733 549.837 191.133 549.837 190.2C549.837 188.6 559.971 175.467 580.237 150.8C600.371 126.267 621.504 101.933 643.638 77.8C665.771 53.6667 678.838 41.6 682.838 41.6Z" fill="#5685FF"/>
</svg>
