<svg width="50" height="50" viewBox="0 0 50 50" fill="none" xmlns="http://www.w3.org/2000/svg">
<g clip-path="url(#clip0_124_105)">
<path d="M41.4064 45.1562L27.396 31.1979C26.3891 31.9939 25.2005 32.6182 23.8304 33.0709C22.4603 33.5236 20.9752 33.75 19.3752 33.75C15.3765 33.75 11.9897 32.3611 9.21469 29.5833C6.43973 26.8056 5.05225 23.4549 5.05225 19.5312C5.05225 15.6076 6.44114 12.2569 9.21891 9.47917C11.9967 6.70139 15.3561 5.3125 19.297 5.3125C23.238 5.3125 26.5887 6.70139 29.3491 9.47917C32.1095 12.2569 33.4897 15.6102 33.4897 19.5391C33.4897 21.0964 33.2727 22.5434 32.8387 23.8802C32.4047 25.217 31.7536 26.4757 30.8856 27.6562L44.9481 41.6146L41.4064 45.1562ZM19.3415 28.8542C21.9421 28.8542 24.1343 27.947 25.9181 26.1328C27.702 24.3186 28.5939 22.1181 28.5939 19.5312C28.5939 16.9444 27.6994 14.7439 25.9105 12.9297C24.1215 11.1155 21.9318 10.2083 19.3415 10.2083C16.7222 10.2083 14.5018 11.1155 12.6803 12.9297C10.8588 14.7439 9.94808 16.9444 9.94808 19.5312C9.94808 22.1181 10.8563 24.3186 12.6726 26.1328C14.489 27.947 16.712 28.8542 19.3415 28.8542Z" fill="#4A4A4A"/>
</g>
<defs>
<clipPath id="clip0_124_105">
<rect width="50" height="50" fill="white"/>
</clipPath>
</defs>
</svg>
