<svg width="100" height="100" viewBox="0 0 100 100" fill="none" xmlns="http://www.w3.org/2000/svg">
<path d="M40.4168 91.6666L38.3335 78.5416C37.0141 78.0555 35.6252 77.3958 34.1668 76.5624C32.7085 75.7291 31.4238 74.861 30.3127 73.9583L18.021 79.5833L8.3335 62.4999L19.5835 54.2708C19.4446 53.6458 19.3578 52.9339 19.3231 52.1353C19.2884 51.3367 19.271 50.6249 19.271 49.9999C19.271 49.3749 19.2884 48.6631 19.3231 47.8645C19.3578 47.0659 19.4446 46.3541 19.5835 45.7291L8.3335 37.4999L18.021 20.4166L30.3127 26.0416C31.4238 25.1388 32.7085 24.2708 34.1668 23.4374C35.6252 22.6041 37.0141 21.9791 38.3335 21.5624L40.4168 8.33325H59.5835L61.6668 21.4583C62.9863 21.9444 64.3925 22.5867 65.8856 23.3853C67.3786 24.1839 68.646 25.0694 69.6877 26.0416L81.9793 20.4166L91.6668 37.4999L80.4168 45.5208C80.5557 46.2152 80.6425 46.9617 80.6772 47.7603C80.712 48.5589 80.7293 49.3055 80.7293 49.9999C80.7293 50.6944 80.712 51.4235 80.6772 52.1874C80.6425 52.9513 80.5557 53.6805 80.4168 54.3749L91.6668 62.4999L81.9793 79.5833L69.6877 73.9583C68.5766 74.861 67.3092 75.7464 65.8856 76.6145C64.462 77.4826 63.0557 78.1249 61.6668 78.5416L59.5835 91.6666H40.4168ZM50.0002 63.5416C53.7502 63.5416 56.9446 62.2221 59.5835 59.5833C62.2224 56.9444 63.5418 53.7499 63.5418 49.9999C63.5418 46.2499 62.2224 43.0555 59.5835 40.4166C56.9446 37.7777 53.7502 36.4583 50.0002 36.4583C46.2502 36.4583 43.0557 37.7777 40.4168 40.4166C37.7779 43.0555 36.4585 46.2499 36.4585 49.9999C36.4585 53.7499 37.7779 56.9444 40.4168 59.5833C43.0557 62.2221 46.2502 63.5416 50.0002 63.5416ZM50.0002 57.2916C47.9863 57.2916 46.2675 56.5798 44.8439 55.1562C43.4203 53.7326 42.7085 52.0138 42.7085 49.9999C42.7085 47.986 43.4203 46.2673 44.8439 44.8437C46.2675 43.4201 47.9863 42.7083 50.0002 42.7083C52.0141 42.7083 53.7328 43.4201 55.1564 44.8437C56.58 46.2673 57.2918 47.986 57.2918 49.9999C57.2918 52.0138 56.58 53.7326 55.1564 55.1562C53.7328 56.5798 52.0141 57.2916 50.0002 57.2916ZM45.4168 85.4166H54.5835L56.0418 73.7499C58.3335 73.1944 60.5036 72.3263 62.5522 71.1458C64.6009 69.9652 66.4585 68.5416 68.1252 66.8749L79.1668 71.6666L83.3335 64.1666L73.5418 56.9791C73.8196 55.7985 74.0453 54.6353 74.2189 53.4895C74.3925 52.3437 74.4793 51.1805 74.4793 49.9999C74.4793 48.8194 74.4099 47.6562 74.271 46.5103C74.1321 45.3645 73.8891 44.2013 73.5418 43.0208L83.3335 35.8333L79.1668 28.3333L68.1252 33.1249C66.5279 31.3194 64.7224 29.8089 62.7085 28.5937C60.6946 27.3784 58.4724 26.5971 56.0418 26.2499L54.5835 14.5833H45.4168L43.9585 26.2499C41.5974 26.736 39.3925 27.5694 37.3439 28.7499C35.2953 29.9305 33.4724 31.3888 31.8752 33.1249L20.8335 28.3333L16.6668 35.8333L26.4585 43.0208C26.1807 44.2013 25.955 45.3645 25.7814 46.5103C25.6078 47.6562 25.521 48.8194 25.521 49.9999C25.521 51.1805 25.6078 52.3437 25.7814 53.4895C25.955 54.6353 26.1807 55.7985 26.4585 56.9791L16.6668 64.1666L20.8335 71.6666L31.8752 66.8749C33.5418 68.5416 35.3995 69.9652 37.4481 71.1458C39.4967 72.3263 41.6668 73.1944 43.9585 73.7499L45.4168 85.4166Z" fill="black"/>
</svg>
